<!-- Multi-Layered Icon with Pine Leaf Shapes -->
<svg xmlns="http://www.w3.org/2000/svg" viewBox="0 0 800 800" preserveAspectRatio="xMidYMid meet">
  <defs>
    <!-- Gradient Definitions -->
    <linearGradient id="gradient10a" x1="50%" y1="0%" x2="50%" y2="100%">
      <stop offset="0%" style="stop-color:#ff6a00; stop-opacity:1"/> <!-- Orange -->
      <stop offset="100%" style="stop-color:#ee0979; stop-opacity:1"/> <!-- Pink -->
    </linearGradient>
    <linearGradient id="gradient10b" x1="50%" y1="0%" x2="50%" y2="100%">
      <stop offset="0%" style="stop-color:#ff9a00; stop-opacity:1"/> <!-- Light Orange -->
      <stop offset="100%" style="stop-color:#ff165d; stop-opacity:1"/> <!-- Coral -->
    </linearGradient>
    <linearGradient id="gradient10c" x1="50%" y1="0%" x2="50%" y2="100%">
      <stop offset="0%" style="stop-color:#ffd700; stop-opacity:1"/> <!-- Gold -->
      <stop offset="100%" style="stop-color:#ff0080; stop-opacity:1"/> <!-- Magenta -->
    </linearGradient>
    <!-- Shadow Filter -->
    <filter id="shadow10" x="-20%" y="-20%" width="140%" height="140%">
      <feDropShadow dx="0" dy="15" stdDeviation="10" flood-color="#000" flood-opacity="0.5"/>
    </filter>
  </defs>

  <!-- Background -->
  <rect width="800" height="800" fill="none"/>

  <!-- Multi-Layered Pine Leaf Shapes -->
  <g transform="translate(400, 400)">
    <!-- Base Layer Pine Leaf -->
    <path d="
      M 0 -300
      C -20 -280, -40 -260, -60 -240
      C -80 -220, -100 -200, -120 -180
      C -140 -160, -160 -140, -180 -120
      C -160 -100, -140 -80, -120 -60
      C -100 -40, -80 -20, -60 0
      L 0 0
      L 60 0
      C 80 -20, 100 -40, 120 -60
      C 140 -80, 160 -100, 180 -120
      C 160 -140, 140 -160, 120 -180
      C 100 -200, 80 -220, 60 -240
      C 40 -260, 20 -280, 0 -300 Z"
      fill="url(#gradient10a)"
      filter="url(#shadow10)"/>

    <!-- Middle Layer Pine Leaf -->
    <path d="
      M 0 -250
      C -15 -235, -30 -220, -45 -205
      C -60 -190, -75 -175, -90 -160
      C -105 -145, -120 -130, -135 -115
      C -120 -100, -105 -85, -90 -70
      C -75 -55, -60 -40, -45 -25
      L 0 -25
      L 45 -25
      C 60 -40, 75 -55, 90 -70
      C 105 -85, 120 -100, 135 -115
      C 120 -130, 105 -145, 90 -160
      C 75 -175, 60 -190, 45 -205
      C 30 -220, 15 -235, 0 -250 Z"
      fill="url(#gradient10b)"
      filter="url(#shadow10)"/>

    <!-- Top Layer Pine Leaf -->
    <path d="
      M 0 -200
      C -10 -190, -20 -180, -30 -170
      C -40 -160, -50 -150, -60 -140
      C -70 -130, -80 -120, -90 -110
      C -80 -100, -70 -90, -60 -80
      C -50 -70, -40 -60, -30 -50
      L 0 -50
      L 30 -50
      C 40 -60, 50 -70, 60 -80
      C 70 -90, 80 -100, 90 -110
      C 80 -120, 70 -130, 60 -140
      C 50 -150, 40 -160, 30 -170
      C 20 -180, 10 -190, 0 -200 Z"
      fill="url(#gradient10c)"
      filter="url(#shadow10)"/>
  </g>
</svg>
